<svg width="25" height="28" viewBox="0 0 25 28" fill="none" xmlns="http://www.w3.org/2000/svg">
<path d="M3.78227 6.85961C11.0327 5.03996 20.0466 5.15152 22.1299 7.52302C24.2131 9.89451 24.1702 17.8242 21.735 20C19.3012 22.1759 8.73155 22.3827 5.38303 20C1.8453 17.4813 3.89797 9.73318 3.78227 5.03996C3.85169 2.41371 1 1.98779 1 1.98779" stroke="#323232" stroke-width="2" stroke-linecap="round" stroke-linejoin="round"/>
<path d="M15.3005 12.6964H19.0751" stroke="#323232" stroke-width="2" stroke-linecap="round" stroke-linejoin="round"/>
<path fill-rule="evenodd" clip-rule="evenodd" d="M5.91909 25.4979C6.32745 25.4979 6.65958 25.8299 6.65958 26.2381C6.65958 26.6477 6.32745 26.9797 5.91909 26.9797C5.50938 26.9797 5.17725 26.6477 5.17725 26.2381C5.17725 25.8299 5.50938 25.4979 5.91909 25.4979Z" fill="black" stroke="#323232" stroke-width="2" stroke-linecap="round" stroke-linejoin="round"/>
<path fill-rule="evenodd" clip-rule="evenodd" d="M19.9822 25.4979C20.3919 25.4979 20.724 25.8299 20.724 26.2381C20.724 26.6477 20.3919 26.9797 19.9822 26.9797C19.5738 26.9797 19.2417 26.6477 19.2417 26.2381C19.2417 25.8299 19.5738 25.4979 19.9822 25.4979Z" fill="black" stroke="#323232" stroke-width="2" stroke-linecap="round" stroke-linejoin="round"/>
</svg>
